<svg xmlns="http://www.w3.org/2000/svg" viewBox="0 0 900 520">
<rect x="0" y="0" width="900" height="520" fill="#f4f1ea"/>
<text x="90" y="38" font-size="26" font-weight="700" fill="#20231f" font-family="sans-serif">광학 부품 3사 주가 상승률 (연초 대비, 2026.10.08 기준)</text>
<line x1="90" y1="410" x2="840" y2="410" stroke="#d8d3c6" stroke-width="1"/><text x="74" y="419" text-anchor="end" font-size="22" fill="#62655d" font-family="monospace">0%</text><line x1="90" y1="330" x2="840" y2="330" stroke="#d8d3c6" stroke-width="1"/><text x="74" y="339" text-anchor="end" font-size="22" fill="#62655d" font-family="monospace">50%</text><line x1="90" y1="251" x2="840" y2="251" stroke="#d8d3c6" stroke-width="1"/><text x="74" y="260" text-anchor="end" font-size="22" fill="#62655d" font-family="monospace">100%</text><line x1="90" y1="171" x2="840" y2="171" stroke="#d8d3c6" stroke-width="1"/><text x="74" y="180" text-anchor="end" font-size="22" fill="#62655d" font-family="monospace">150%</text><line x1="90" y1="92" x2="840" y2="92" stroke="#d8d3c6" stroke-width="1"/><text x="74" y="101" text-anchor="end" font-size="22" fill="#62655d" font-family="monospace">200%</text><rect x="146" y="85" width="138" height="325" fill="#16756a" rx="4"/><text x="215" y="71" text-anchor="middle" font-size="30" font-weight="700" fill="#20231f" font-family="sans-serif">+204%</text><text x="215" y="454" text-anchor="middle" font-size="28" fill="#20231f" font-family="sans-serif">AAOI</text><rect x="396" y="116" width="138" height="294" fill="#16756a" rx="4"/><text x="465" y="102" text-anchor="middle" font-size="30" font-weight="700" fill="#20231f" font-family="sans-serif">+185%</text><text x="465" y="454" text-anchor="middle" font-size="28" fill="#20231f" font-family="sans-serif">LITE</text><rect x="646" y="308" width="138" height="102" fill="#e0795b" rx="4"/><text x="715" y="294" text-anchor="middle" font-size="30" font-weight="700" fill="#20231f" font-family="sans-serif">+64%</text><text x="715" y="454" text-anchor="middle" font-size="28" fill="#20231f" font-family="sans-serif">COHR</text>
<text x="90" y="498" font-size="20" fill="#62655d" font-family="monospace">자료: Stocktwits(2026.10.08) — LITE=루멘텀, COHR=코히런트, AAOI=어플라이드 옵토일렉트로닉스</text>
</svg>